<?xml version="1.0" encoding="utf-8"?>
<!-- Generator: Adobe Illustrator 26.0.1, SVG Export Plug-In . SVG Version: 6.00 Build 0)  -->
<svg version="1.1" id="Layer_1" xmlns="http://www.w3.org/2000/svg" xmlns:xlink="http://www.w3.org/1999/xlink" x="0px" y="0px"
	 viewBox="0 0 100 100" style="enable-background:new 0 0 100 100;" xml:space="preserve">
<style type="text/css">
	.st0{fill:#BBDB8F;}
	.st1{fill:#F9F073;}
	.st2{fill:#948AC2;}
</style>
<g>
	<path class="st0" d="M15.7,92c35.5,4.9,66.9,2.4,72.1-10.6c5.9-14.8-21.3-44.3-69.4-70.6"/>
	<path class="st1" d="M15.8,91.5c13.7,0.6,65.8,3.7,69.1-13c0.9-21.8-49.3-55.3-66.7-67.2c0,0,0.5-0.9,0.5-0.9
		c10.4,4.5,20.4,9.9,30,16C64,36.3,94.6,59.3,92.1,79.6c-3.7,19.5-39,18-54,16.6c-7.5-0.8-15-2-22.4-3.6
		C15.7,92.5,15.8,91.5,15.8,91.5L15.8,91.5z"/>
</g>
<g>
	<path class="st0" d="M49.3,10.9c-0.5,0.7-9.7,87-9.7,87h20L86,12.2L49.3,10.9z"/>
	<path class="st2" d="M49.5,11.4c0.1,0.1,0.2-0.1,0.2,0c0,0.2-0.1,0.8-0.1,1c-0.7,5.5-1.7,14.8-2.4,20.4c-1.5,13.8-5.5,51-7,65.3
		c0,0-0.5-0.6-0.5-0.6s20,0,20,0l-0.5,0.4l23.5-86.6c0,0,3.4,4.7,3.4,4.7C74.2,14.4,62.1,12.8,49.5,11.4L49.5,11.4z M49.1,10.5
		c2.9-0.2,40.7-2.1,42.2-2.2c0,0-1.7,5-1.7,5C89.3,13.8,60.1,98,59.9,98.4c0,0-0.4,0-0.4,0h-20c0,0-0.6,0-0.6,0s0.1-0.6,0.1-0.6
		l4.7-43.5C45,43,47,24.7,48.4,13.6c0,0,0.2-1.4,0.2-1.4l0.1-0.7C48.7,11.2,48.8,10.7,49.1,10.5L49.1,10.5z"/>
</g>
</svg>
